<svg width="800" height="800" viewBox="0 0 800 800" fill="none" xmlns="http://www.w3.org/2000/svg">
<path d="M727.332 395.831C702.226 335.218 650.802 277.433 582.522 233.123C563.869 221.015 544.727 210.43 525.918 201.607C525.921 201.361 525.934 201.115 525.934 200.869C525.934 149.218 494.668 104.751 450.079 85.3503L492.863 42.5654C502.6 32.8283 502.6 17.0408 492.863 7.30699C483.123 -2.43013 467.339 -2.43013 457.602 7.30699L400.299 64.6094L343.559 7.86882C333.818 -1.86831 318.034 -1.86831 308.297 7.86882C298.56 17.6059 298.56 33.3934 308.297 43.1272L350.33 85.1608C305.524 104.472 274.069 149.059 274.069 200.866C274.069 201.112 274.082 201.358 274.086 201.607C255.273 210.43 236.131 221.018 217.475 233.126C149.202 277.437 97.7768 335.221 72.6711 395.831C46.0062 460.205 76.6836 534.275 141.064 560.943C156.515 567.343 172.772 570.588 189.38 570.588C209.353 570.584 228.468 565.894 245.562 557.423C278.042 610.799 335.906 643.983 400 643.983C464.091 643.983 521.958 610.803 554.438 557.43C571.532 565.893 590.65 570.588 610.623 570.588C627.232 570.588 643.488 567.343 658.94 560.943C723.32 534.275 754 460.205 727.332 395.831ZM400 124.801C435.245 124.801 464.962 148.903 473.559 181.485C453.991 175.757 435.834 172.639 420.302 172.639L379.691 172.642C364.16 172.642 346.005 175.76 326.438 181.488C335.035 148.903 364.755 124.801 400 124.801ZM471.531 438.094H328.469L400.003 263.381L471.531 438.094ZM189.374 520.722C179.347 520.722 169.514 518.754 160.142 514.874C121.167 498.731 102.594 453.888 118.737 414.917C152.187 334.164 238.501 270.618 308.35 240.892C309.484 240.509 310.584 240.067 311.628 239.539C330.175 231.869 347.481 226.607 362.185 224.14L268.381 453.26C268.354 453.32 268.328 453.38 268.308 453.439L260.103 473.476C255.492 484.602 248.478 494.177 239.828 501.763C239.492 502.025 239.173 502.301 238.854 502.577C225.327 514.046 207.96 520.718 189.374 520.722ZM400 594.118C351.63 594.118 308.157 568.041 285.265 526.513C293.826 516.516 300.97 505.11 306.209 492.464L308.054 487.96H491.946L493.827 492.561C499.053 505.174 506.181 516.553 514.728 526.529C491.833 568.048 448.363 594.118 400 594.118ZM639.861 514.871C630.49 518.75 620.653 520.718 610.623 520.718C591.95 520.718 574.504 513.983 560.957 502.428C560.731 502.235 560.505 502.039 560.272 501.856C551.589 494.273 544.548 484.695 539.937 473.565L531.702 453.456C531.672 453.383 531.642 453.31 531.612 453.237L437.805 224.11C452.529 226.57 469.879 231.849 488.485 239.552C489.446 240.034 490.456 240.436 491.49 240.792C561.322 270.482 647.78 334.074 681.263 414.913C697.406 453.888 678.833 498.728 639.861 514.871Z" fill="#F7D902"/>
<path d="M583.124 610.879C573.383 601.142 557.599 601.142 547.862 610.879C538.125 620.616 538.125 636.404 547.862 646.138L603.02 701.296C607.89 706.163 614.273 708.599 620.653 708.599C627.032 708.599 633.415 706.166 638.285 701.296C648.022 691.559 648.022 675.771 638.285 666.037L583.124 610.879Z" fill="#F7D902"/>
<path d="M400 672.131C386.227 672.131 375.067 683.294 375.067 697.064V775.067C375.067 788.837 386.227 800 400 800C413.773 800 424.933 788.837 424.933 775.067V697.064C424.933 683.294 413.773 672.131 400 672.131Z" fill="#F7D902"/>
<path d="M216.88 610.882L161.725 666.037C151.988 675.774 151.988 691.562 161.725 701.296C166.595 706.163 172.978 708.599 179.357 708.599C185.737 708.599 192.12 706.166 196.99 701.296L252.145 646.141C261.882 636.404 261.882 620.616 252.145 610.882C242.404 601.145 226.62 601.145 216.88 610.882Z" fill="#F7D902"/>
</svg>
